<svg xmlns="http://www.w3.org/2000/svg" viewBox="0 0 307.1 101"><defs><style>.cls-1{fill:none;stroke:#8ad2d8;stroke-miterlimit:10;stroke-width:2px;}</style></defs><title>Asset 5</title><g id="Layer_2" data-name="Layer 2"><g id="Layer_1-2" data-name="Layer 1"><g id="Layer_1-2-2" data-name="Layer 1-2"><polygon class="cls-1" points="19 19.04 19 81.96 1 81.96 1 37.04 19 19.04"/><polygon class="cls-1" points="1 27.96 1 19.04 10 19.04 1 27.96"/><path class="cls-1" d="M82,10l-9,9V82l18,18h49.73l9-12.67H91c-.06,0,0-73.17,0-73.17h49.73l9-13.16H91Z"/><path class="cls-1" d="M23.5,37.08v45h18v-36l9-9v45h18v-54s0-9-9-9h-18Z"/><polygon class="cls-1" points="23.5 28.08 23.5 19.17 32.5 19.17 23.5 28.08"/><path class="cls-1" d="M95.78,36.92V82.08h18.34v-27l9,9v18h18V56.6A3.66,3.66,0,0,0,140,54l-7.92-7.93s9,0,9-9v-10s.64-8-9-8h-18Z"/><path class="cls-1" d="M202.5,37h0V82h18V55h18s9,0,9-9V28s0-9-9-9h-18Z"/><polygon class="cls-1" points="202.51 28 202.51 19.08 211.51 19.08 202.51 28"/><polygon class="cls-1" points="252.2 19.08 252.2 37.08 270.2 37.08 270.2 82.08 288.2 64.08 288.2 37.08 306.1 37.08 306.1 19.08 252.2 19.08"/><polygon class="cls-1" points="288.07 73.08 279.15 82.08 288.07 82.08 288.07 73.08 288.07 73.08"/><polygon class="cls-1" points="144.24 19.08 162.13 19.13 171.24 37.08 180.29 19.13 198.21 19.16 180.24 55.08 180.24 64.13 162.24 82.08 162.24 55.08 144.24 19.08"/><polygon class="cls-1" points="180.21 73.08 171.29 82.08 180.21 82.08 180.21 73.08 180.21 73.08"/></g></g></g></svg>